HIERARCHY
ROOT Hips
{
  OFFSET 54.0557 85.5852 5.68159
  CHANNELS 6 Xposition Yposition Zposition Zrotation Xrotation Yrotation
  JOINT spine
  {
    OFFSET 0 6.3926 0.367606
    CHANNELS 3 Zrotation Xrotation Yrotation
    JOINT spine1
    {
      OFFSET 0 9.17611 0
      CHANNELS 3 Zrotation Xrotation Yrotation
      JOINT spine2
      {
        OFFSET 0 8.79238 0
        CHANNELS 3 Zrotation Xrotation Yrotation
        JOINT Neck
        {
          OFFSET 0 22.5737 1.07624
          CHANNELS 3 Zrotation Xrotation Yrotation
          JOINT Head
          {
            OFFSET 0 6.82011 0
            CHANNELS 3 Zrotation Xrotation Yrotation
            End Site
            {
              OFFSET 0 16.5085 -5.44427
            }
          }
        }
        JOINT RightShoulder
        {
          OFFSET -3.70221 9.49509 -0.515508
          CHANNELS 3 Zrotation Xrotation Yrotation
          JOINT RightArm
          {
            OFFSET 0 12.4537 0
            CHANNELS 3 Zrotation Xrotation Yrotation
            JOINT RightArmRoll
            {
              OFFSET 0 6.28686 0
              CHANNELS 3 Zrotation Xrotation Yrotation
              JOINT RightForeArm
              {
                OFFSET 0 18.3114 0
                CHANNELS 3 Zrotation Xrotation Yrotation
                JOINT RightForeArmRoll
                {
                  OFFSET 0 7.05482 0
                  CHANNELS 3 Zrotation Xrotation Yrotation
                  JOINT RightHand
                  {
                    OFFSET 0 14.1575 0
                    CHANNELS 3 Zrotation Xrotation Yrotation
                    End Site
                    {
                      OFFSET 0 0 0
                    }
                  }
                }
              }
            }
          }
        }
        JOINT LeftShoulder
        {
          OFFSET 3.70221 9.49509 -0.515508
          CHANNELS 3 Zrotation Xrotation Yrotation
          JOINT LeftArm
          {
            OFFSET 0 12.4537 0
            CHANNELS 3 Zrotation Xrotation Yrotation
            JOINT LeftArmRoll
            {
              OFFSET 0 6.28686 0
              CHANNELS 3 Zrotation Xrotation Yrotation
              JOINT LeftForeArm
              {
                OFFSET 0 18.3114 0
                CHANNELS 3 Zrotation Xrotation Yrotation
                JOINT LeftForeArmRoll
                {
                  OFFSET 0 7.05482 0
                  CHANNELS 3 Zrotation Xrotation Yrotation
                  JOINT LeftHand
                  {
                    OFFSET 0 14.1575 0
                    CHANNELS 3 Zrotation Xrotation Yrotation
                    End Site
                    {
                      OFFSET 0 0 0
                    }
                  }
                }
              }
            }
          }
        }
      }
    }
  }
  JOINT RightUpLeg
  {
    OFFSET -5.66616 -1.03903 -0.87161
    CHANNELS 3 Zrotation Xrotation Yrotation
    JOINT RightUpLegRoll
    {
      OFFSET 0 16.6005 0
      CHANNELS 3 Zrotation Xrotation Yrotation
      JOINT RightLeg
      {
        OFFSET 0 -20.5572 0
        CHANNELS 3 Zrotation Xrotation Yrotation
        JOINT RightLegRoll
        {
          OFFSET 0 20.6244 0
          CHANNELS 3 Zrotation Xrotation Yrotation
          JOINT RightFoot
          {
            OFFSET 0 17.1664 0
            CHANNELS 3 Zrotation Xrotation Yrotation
            JOINT RightToeBase
            {
              OFFSET 0 14.3502 0
              CHANNELS 3 Zrotation Xrotation Yrotation
              End Site
              {
                OFFSET 0.00608252 6.94971 -0.801061
              }
            }
          }
        }
      }
    }
  }
  JOINT LeftUpLeg
  {
    OFFSET 5.66616 -1.03903 -0.87161
    CHANNELS 3 Zrotation Xrotation Yrotation
    JOINT LeftUpLegRoll
    {
      OFFSET 0 16.6006 0
      CHANNELS 3 Zrotation Xrotation Yrotation
      JOINT LeftLeg
      {
        OFFSET 0 20.5571 0
        CHANNELS 3 Zrotation Xrotation Yrotation
        JOINT LeftLegRoll
        {
          OFFSET 0 20.8151 0
          CHANNELS 3 Zrotation Xrotation Yrotation
          JOINT LeftFoot
          {
            OFFSET 0 16.9757 0
            CHANNELS 3 Zrotation Xrotation Yrotation
            JOINT LeftToeBase
            {
              OFFSET 0 14.3502 0
              CHANNELS 3 Zrotation Xrotation Yrotation
              End Site
              {
                OFFSET -0.0272592 6.94971 -0.80106
              }
            }
          }
        }
      }
    }
  }
}
MOTION
Frames: 9
Frame Time: 0.00208333
53.0543 85.6663 7.95684 -1.88893 -4.70168 -1.1101 -0.0984722 -0.955682 -0.11367 -0.183487 2.09163 -0.220384 -0.181017 3.7367 -0.217465 5.07499 6.56277 -0.402323 -3.63213 1.54628 0.686087 64.9569 -2.10458 -1.87149 106.074 16.7238 4.44017 -1.64242e-007 7.0576e-007 -3.12372e-006 14.4169 4.16245 -0.863709 -2.44176e-007 -4.83522e-006 -3.00178 8.0289 -4.95144 0.697717 -53.9109 -0.393169 -0.39043 -112.686 13.8033 -2.03194 -1.61433e-006 3.78306e-006 2.33583e-006 -9.08575 2.59161 0.783796 5.73947e-006 -3.7781e-006 3.00864 -8.02903 -4.95146 -0.697686 177.303 -3.90927 0.166284 180 7.01527e-015 178.841 177.149 5.28333 179.743 1.13523e-006 -4.47681e-006 0.0509744 -18.4691 67.7186 19.2916 8.13706 25.241 -3.48906 -172.754 -2.40459 -1.13931 4.54188e-006 -4.6773e-006 -1.07754 -1.16509 -8.9343 0.519314 5.28678e-008 -5.90967e-006 -0.0767766 18.6761 69.7656 -21.0475 -8.13657 25.2338 3.48619 
53.0584 85.6614 7.95385 -1.8899 -4.70011 -1.10996 -0.0978152 -0.955321 -0.114033 -0.182893 2.09235 -0.220842 -0.180417 3.73742 -0.217933 5.07584 6.56074 -0.407711 -3.62749 1.54574 0.681136 64.9545 -2.11217 -1.87544 106.077 16.7212 4.44914 -1.64242e-007 7.0576e-007 -3.12372e-006 14.4096 4.16854 -0.865072 -2.44176e-007 -4.83522e-006 -3.00178 8.0289 -4.95144 0.697717 -53.9071 -0.412327 -0.377907 -112.685 13.786 -2.0496 -1.61433e-006 3.78306e-006 2.33583e-006 -9.07683 2.60212 0.784681 5.73947e-006 -3.7781e-006 3.00864 -8.02903 -4.95146 -0.697686 177.303 -3.90644 0.166595 180 7.01527e-015 178.841 177.147 5.28397 179.743 1.13523e-006 -4.47681e-006 0.0509744 -18.4688 67.7183 19.2913 8.13706 25.241 -3.48906 -172.754 -2.39941 -1.13809 4.54188e-006 -4.6773e-006 -1.07752 -1.16334 -8.93975 0.519538 5.28678e-008 -5.90967e-006 -0.0767766 18.6731 69.767 -21.0486 -8.13657 25.2338 3.48619 
53.0453 85.6665 7.93326 -1.89098 -4.69848 -1.10983 -0.0971538 -0.954951 -0.114401 -0.182277 2.09309 -0.221279 -0.179795 3.73816 -0.218381 5.07696 6.55864 -0.413295 -3.6229 1.54491 0.676044 64.9521 -2.12025 -1.87965 106.079 16.7185 4.45722 -1.64242e-007 7.0576e-007 -3.12372e-006 14.4029 4.17544 -0.86652 -2.44176e-007 -4.83522e-006 -3.00178 8.0289 -4.95144 0.697717 -53.9029 -0.431687 -0.365282 -112.683 13.7685 -2.06661 -1.61433e-006 3.78306e-006 2.33583e-006 -9.06845 2.61332 0.785611 5.73947e-006 -3.7781e-006 3.00864 -8.02903 -4.95146 -0.697686 177.304 -3.90358 0.16688 180 7.01527e-015 178.841 177.145 5.2846 179.743 1.13523e-006 -4.47681e-006 0.0509744 -18.4685 67.7179 19.291 8.13706 25.241 -3.48906 -172.754 -2.39402 -1.13684 4.54188e-006 -4.6773e-006 -1.07749 -1.16149 -8.9455 0.519784 5.28678e-008 -5.90967e-006 -0.0767766 18.6701 69.7685 -21.0499 -8.13657 25.2338 3.48619 
53.0521 85.662 7.93628 -1.89214 -4.69681 -1.1097 -0.0964895 -0.954574 -0.114772 -0.181646 2.09385 -0.221701 -0.179158 3.73892 -0.218813 5.07826 6.55649 -0.419016 -3.61834 1.54388 0.670853 64.9496 -2.12866 -1.88405 106.082 16.7158 4.46467 -1.64242e-007 7.0576e-007 -3.12372e-006 14.3965 4.1829 -0.868027 -2.44176e-007 -4.83522e-006 -3.00178 8.0289 -4.95144 0.697717 -53.8985 -0.451188 -0.352585 -112.682 13.7509 -2.08315 -1.61433e-006 3.78306e-006 2.33583e-006 -9.06045 2.62499 0.786575 5.73947e-006 -3.7781e-006 3.00864 -8.02903 -4.95146 -0.697686 177.305 -3.90069 0.167146 180 7.01527e-015 178.841 177.143 5.28527 179.743 1.13523e-006 -4.47681e-006 0.0509744 -18.4682 67.7175 19.2907 8.13706 25.241 -3.48906 -172.753 -2.38849 -1.13558 4.54188e-006 -4.6773e-006 -1.07745 -1.15956 -8.95147 0.520044 5.28678e-008 -5.90967e-006 -0.0767766 18.667 69.7702 -21.0512 -8.13657 25.2338 3.48619 
53.0495 85.6686 7.94786 -1.89334 -4.69511 -1.10958 -0.0958234 -0.954193 -0.115146 -0.181006 2.09461 -0.222115 -0.178513 3.73968 -0.219238 5.07967 6.55432 -0.424814 -3.6138 1.54274 0.665605 64.9472 -2.13727 -1.88855 106.085 16.7131 4.47177 -1.64242e-007 7.0576e-007 -3.12372e-006 14.3903 4.19069 -0.869568 -2.44176e-007 -4.83522e-006 -3.00178 8.0289 -4.95144 0.697717 -53.894 -0.47077 -0.339848 -112.681 13.7332 -2.09942 -1.61433e-006 3.78306e-006 2.33583e-006 -9.05267 2.63694 0.787557 5.73947e-006 -3.7781e-006 3.00864 -8.02903 -4.95146 -0.697686 177.306 -3.89778 0.167402 180 7.01527e-015 178.841 177.141 5.28593 179.744 1.13523e-006 -4.47681e-006 0.0509744 -18.4679 67.7172 19.2903 8.13706 25.241 -3.48906 -172.752 -2.38288 -1.13431 4.54188e-006 -4.6773e-006 -1.07741 -1.15758 -8.95757 0.520313 5.28678e-008 -5.90967e-006 -0.0767766 18.6639 69.7719 -21.0525 -8.13657 25.2338 3.48619 
53.0406 85.7043 7.94214 -1.89456 -4.69341 -1.10946 -0.0951569 -0.953812 -0.11552 -0.180365 2.09537 -0.222526 -0.177865 3.74044 -0.219661 5.0811 6.55214 -0.430632 -3.60927 1.54157 0.660344 64.9447 -2.14593 -1.89308 106.088 16.7103 4.47877 -1.64242e-007 7.0576e-007 -3.12372e-006 14.3841 4.19856 -0.871118 -2.44176e-007 -4.83522e-006 -3.00178 8.0289 -4.95144 0.697717 -53.8895 -0.490373 -0.3271 -112.68 13.7155 -2.11563 -1.61433e-006 3.78306e-006 2.33583e-006 -9.04494 2.64896 0.788544 5.73947e-006 -3.7781e-006 3.00864 -8.02903 -4.95146 -0.697686 177.307 -3.89487 0.167656 180 7.01527e-015 178.841 177.139 5.28661 179.744 1.13523e-006 -4.47681e-006 0.0509744 -18.4676 67.7168 19.29 8.13706 25.241 -3.48906 -172.752 -2.37725 -1.13304 4.54188e-006 -4.6773e-006 -1.07737 -1.1556 -8.9637 0.520585 5.28678e-008 -5.90967e-006 -0.0767766 18.6608 69.7736 -21.0539 -8.13657 25.2338 3.48619 
53.0471 85.7 7.9413 -1.89575 -4.69172 -1.10934 -0.0944912 -0.953432 -0.115893 -0.179727 2.09613 -0.222942 -0.177222 3.74119 -0.220087 5.08248 6.54997 -0.43641 -3.60472 1.54045 0.655111 64.9423 -2.15449 -1.89756 106.091 16.7076 4.48596 -1.64242e-007 7.0576e-007 -3.12372e-006 14.3779 4.20627 -0.87265 -2.44176e-007 -4.83522e-006 -3.00178 8.0289 -4.95144 0.697717 -53.885 -0.509935 -0.314373 -112.679 13.6979 -2.13196 -1.61433e-006 3.78306e-006 2.33583e-006 -9.0371 2.66084 0.789521 5.73947e-006 -3.7781e-006 3.00864 -8.02903 -4.95146 -0.697686 177.308 -3.89197 0.167914 180 7.01527e-015 178.841 177.138 5.28729 179.744 1.13523e-006 -4.47681e-006 0.0509744 -18.4673 67.7164 19.2897 8.13706 25.241 -3.48906 -172.751 -2.37166 -1.13177 4.54188e-006 -4.6773e-006 -1.07734 -1.15364 -8.96977 0.520852 5.28678e-008 -5.90967e-006 -0.0767766 18.6577 69.7753 -21.0553 -8.13657 25.2338 3.48619 
53.0418 85.6598 7.94158 -1.89689 -4.69006 -1.10921 -0.0938277 -0.953057 -0.116263 -0.179101 2.09688 -0.223368 -0.17659 3.74194 -0.220524 5.08373 6.54784 -0.442091 -3.60015 1.53948 0.649948 64.9398 -2.16281 -1.9019 106.093 16.7049 4.49359 -1.64242e-007 7.0576e-007 -3.12372e-006 14.3714 4.21357 -0.874141 -2.44176e-007 -4.83522e-006 -3.00178 8.0289 -4.95144 0.697717 -53.8807 -0.529396 -0.301696 -112.678 13.6803 -2.14862 -1.61433e-006 3.78306e-006 2.33583e-006 -9.029 2.67238 0.790475 5.73947e-006 -3.7781e-006 3.00864 -8.02903 -4.95146 -0.697686 177.309 -3.88908 0.168186 180 7.01527e-015 178.841 177.136 5.28794 179.744 1.13523e-006 -4.47681e-006 0.0509744 -18.467 67.7161 19.2894 8.13706 25.241 -3.48906 -172.751 -2.36617 -1.13052 4.54188e-006 -4.6773e-006 -1.0773 -1.15173 -8.97568 0.521108 5.28678e-008 -5.90967e-006 -0.0767766 18.6546 69.7769 -21.0565 -8.13657 25.2338 3.48619 
53.0392 85.674 7.92578 -1.89794 -4.68845 -1.10908 -0.0931676 -0.95269 -0.116629 -0.178491 2.09762 -0.223812 -0.175974 3.74268 -0.220978 5.08476 6.54576 -0.447616 -3.59555 1.53874 0.644898 64.9374 -2.17074 -1.90603 106.096 16.7022 4.50193 -1.64242e-007 7.0576e-007 -3.12372e-006 14.3645 4.22023 -0.875563 -2.44176e-007 -4.83522e-006 -3.00178 8.0289 -4.95144 0.697717 -53.8765 -0.548695 -0.289101 -112.677 13.6628 -2.16581 -1.61433e-006 3.78306e-006 2.33583e-006 -9.02046 2.68337 0.791392 5.73947e-006 -3.7781e-006 3.00864 -8.02903 -4.95146 -0.697686 177.31 -3.88623 0.168479 180 7.01527e-015 178.841 177.134 5.28858 179.745 1.13523e-006 -4.47681e-006 0.0509744 -18.4667 67.7157 19.2891 8.13706 25.241 -3.48906 -172.75 -2.36084 -1.12928 4.54188e-006 -4.6773e-006 -1.07728 -1.1499 -8.98134 0.521348 5.28678e-008 -5.90967e-006 -0.0767766 18.6516 69.7784 -21.0577 -8.13657 25.2338 3.48619 
